<svg width="48" height="48" fill="none" xmlns="http://www.w3.org/2000/svg"><g clip-path="url(#a)"><path d="M38.3 12.6V.5H5.6C2.8.5.5 2.8.5 5.6v36.8c0 2.8 2.3 5.1 5.1 5.1h32.7V22.4h9.3l-2.8-4.9 2.8-4.9h-9.3ZM5.6 2.5h30.7v2.1H6.2v2h30.1v2.1H5.6c-1.7 0-3.1-1.4-3.1-3.1 0-1.7 1.4-3.1 3.1-3.1ZM2.5 42.4V9.6c.9.7 1.9 1.1 3.1 1.1h1.6v34.8H5.6c-1.7 0-3.1-1.4-3.1-3.1Zm33.8 3.1H9.2V10.7h27.1v34.8Zm7.8-25.1h-5.8v-5.8h5.8l-1.7 2.9 1.7 2.9Z" fill="#fff"/></g><defs><clipPath id="a"><path fill="#fff" d="M0 0h48v48H0z"/></clipPath></defs></svg>