<svg width="63" height="42" fill="none" xmlns="http://www.w3.org/2000/svg"><g clip-path="url(#a)"><path d="M0 26.793c.143-1.156.217-2.324.442-3.463.61-3.094 1.272-6.177 1.94-9.258.667-3.081 1.373-6.156 2.05-9.236C5.057 1.989 6.902.315 9.748.038c2.69-.262 5.501 1.926 5.883 4.605.087.606.12 1.226.111 1.838-.014.847-.575 1.393-1.335 1.375-.738-.017-1.223-.543-1.268-1.378-.022-.389-.014-.78-.063-1.166-.185-1.455-1.317-2.55-2.716-2.65-1.542-.109-2.838.725-3.211 2.197-.482 1.905-.883 3.83-1.306 5.751-.901 4.1-1.826 8.196-2.672 12.306-.295 1.436-.384 2.912-.51 4.37C4.028 20.86 7.712 16.608 14.376 15.91c6.896-.723 11.404 2.84 13.958 9.158 2.1-1.925 4.238-1.925 6.399.054 1.187-3.556 3.345-6.232 6.634-7.935 2.401-1.244 4.962-1.659 7.635-1.301 5.701.763 10.395 5.251 11.346 11.392-.077-.886-.079-1.786-.247-2.654a481.604 481.604 0 0 0-1.919-9.45c-.706-3.305-1.461-6.598-2.195-9.896-.325-1.465-1.307-2.45-2.592-2.607-1.374-.168-2.655.463-3.174 1.708-.244.584-.218 1.275-.353 1.91-.088.407-.167.854-.396 1.18-.292.415-.805.48-1.289.332-.516-.157-.845-.541-.89-1.071-.178-2.021.274-3.858 1.858-5.232 3.44-2.985 8.39-1.293 9.398 3.216 1.327 5.936 2.67 11.867 3.872 17.829.407 2.015.436 4.11.573 6.173.064.965-.517 1.457-1.546 1.494-.777.027-1.238.429-1.38 1.207-1.06 5.754-6.12 10.222-11.947 10.55-7.042.394-13.007-4.539-13.84-11.552-.148-1.246-.524-2.301-1.28-3.243-.953-1.184-2.03-1.196-2.965-.016-.703.888-1.191 1.847-1.274 3.052-.394 5.713-5.243 10.756-10.901 11.635C10.43 42.996 3.766 37.776 2.836 30.65c-.045-.338-.172-.466-.507-.444-.307.02-.615.01-.922-.002-.715-.029-1.17-.405-1.404-1.07v-2.338L0 26.793Zm26.24 2.066c-.024-5.802-4.713-10.473-10.5-10.46A10.479 10.479 0 0 0 5.266 28.883c-.003 5.813 4.733 10.531 10.531 10.491 5.808-.04 10.471-4.734 10.445-10.515Zm21.01 10.515c5.788.01 10.475-4.663 10.497-10.463.023-5.782-4.641-10.475-10.448-10.512-5.798-.037-10.534 4.682-10.527 10.493A10.48 10.48 0 0 0 47.25 39.374Z" fill="#3F3A54"/></g><defs><clipPath id="a"><path fill="#fff" d="M0 0h63v41.998H0z"/></clipPath></defs></svg>