<svg width="60" height="64" fill="none" xmlns="http://www.w3.org/2000/svg"><g clip-path="url(#a)" fill="#414042"><path d="M30.404 0c.375.094.752.18 1.124.285 3.062.881 5.216 3.8 5.153 6.976-.064 3.18-2.316 5.998-5.411 6.766-.22.054-.436.111-.684.174v2.083c.583-.396 1.116-.808 1.694-1.14 1.036-.595 2.17-.862 3.365-.86h8.762c.12 0 .24.022.353.033.489 3.435-1.661 6.967-5.336 7.879-.67.166-1.382.222-2.076.231-2.016.03-4.032.011-6.048.011h-.734v1.976h-2.013v-1.937c-.281-.015-.497-.037-.714-.037-2.078-.003-4.154.011-6.233-.005-3.586-.027-6.389-2.218-7.178-5.6a6.682 6.682 0 0 1-.16-1.096c-.028-.448-.007-.9-.007-1.387.123-.024.236-.065.351-.065 3.004 0 6.006-.007 9.01.01 1.74.009 3.239.665 4.546 1.793.086.076.182.14.332.254V14.24c-.574-.187-1.173-.334-1.732-.573-2.886-1.237-4.688-4.26-4.325-7.207.412-3.344 2.704-5.787 5.953-6.354.098-.018.187-.07.281-.107h1.729L30.404 0Zm-.857 2.059a5.08 5.08 0 0 0-5.085 5.039c-.027 2.801 2.267 5.12 5.07 5.125 2.78.005 5.06-2.259 5.086-5.049.026-2.81-2.25-5.107-5.07-5.115ZM28.325 20.34c-.155-1.598-1.646-3.34-3.38-3.76-.884-.216-1.824-.248-2.742-.265-1.905-.039-3.813-.012-5.723-.012.154 1.935 2.13 3.9 4.276 4.008 2.517.128 5.045.03 7.57.03h-.001Zm14.285-4.037c-1.463 0-2.88-.01-4.297.004-1.149.012-2.306-.024-3.444.102-2.06.228-3.857 1.987-4.128 3.92 2.564 0 5.133.121 7.686-.037 2.123-.132 3.958-2.025 4.183-3.987v-.002ZM16.335 0v1.973l-2.057.182.013.016L14.236 0h2.1Z"/><path d="M46.61 20.167c.183-.659.349-1.267.536-1.947 1.835.538 3.62 1.068 5.023 2.402.558.533.833 1.212.825 1.994-.003.285 0 .571 0 .72 1.061.494 2.121.825 2.994 1.425 2.446 1.68 3.494 4.105 2.988 7.007-.512 2.942-2.324 4.892-5.248 5.67-.613.162-.79.415-.846 1.015-.793 8.502-4.985 14.8-12.416 18.953-.541.303-.755.6-.735 1.224.05 1.497.017 2.996.017 4.534h-2.04v-4.48c-2.688.94-5.373 1.453-8.146 1.45-2.777 0-5.471-.49-8.156-1.455v4.485h-2.069c0-1.03.002-2.052 0-3.075-.001-.72.226-1.568-.08-2.123-.296-.541-1.136-.786-1.74-1.157-5.951-3.681-9.62-8.958-11.014-15.807-.192-.942-.25-1.914-.337-2.875-.034-.362-.164-.52-.533-.608-3.627-.865-5.855-3.872-5.615-7.551.186-2.86 2.464-5.573 5.25-6.246l.778-.19c.016-.1.05-.182.04-.259-.198-1.77.704-2.914 2.187-3.639 1.152-.563 2.367-.997 3.636-1.523l.552 2.011c-.918.347-1.79.645-2.633 1.008-.449.191-.875.46-1.265.756-.554.422-.58.813.03 1.157.92.522 1.887 1.01 2.895 1.329 3.248 1.029 6.61 1.482 9.992 1.78 4.082.361 8.173.468 12.266.258 4.603-.236 9.189-.64 13.634-1.971.822-.246 1.641-.551 2.4-.945.44-.227.76-.687 1.133-1.041-.356-.345-.663-.782-1.081-1.012-.715-.391-1.499-.658-2.26-.964-.284-.114-.583-.19-.963-.311l.002.001ZM8.18 25.331c-.007.06-.032.178-.032.295.01 3.97-.075 7.944.057 11.91.213 6.379 2.881 11.654 7.785 15.683 5.173 4.25 11.168 5.708 17.747 4.448 4.738-.906 8.707-3.251 11.885-6.887 3.253-3.72 5.089-8.054 5.252-12.996.134-4.029.054-8.064.065-12.096 0-.137-.024-.274-.04-.434-.77.315-1.489.66-2.244.91-4.552 1.497-9.28 1.933-14.024 2.225-4.03.247-8.059.185-12.084-.123-3.55-.271-7.082-.681-10.527-1.617-1.298-.353-2.55-.87-3.842-1.318h.002ZM6.048 35.52v-9.865c-2.246.387-3.967 2.473-4.027 4.84-.06 2.381 1.647 4.528 4.027 5.025Zm46.968-.004c2.37-.439 4.14-2.675 4.045-5.069-.093-2.383-1.943-4.576-4.045-4.77v9.84ZM44.841 8.135l-.038 2.173.016-.016-1.983-.142V8.153h2.02l-.017-.018h.002ZM46.764 8.2h2.115v1.967h-1.958l-.142-1.98-.015.014ZM16.378 4.112l-.125 1.971h-2.047V4.104l-.016.02c.734 0 1.467.002 2.2.004l-.014-.014.002-.002ZM14.275 2.155 14.19 4.12l.015-.017h-1.941V2.008l2.022.161-.013-.014h.002ZM16.396 4.126l-.128-2.037h2.011V4.11H16.38l.014.016h.002Z"/><path d="M46.775 8.187c-.646-.018-1.294-.034-1.94-.051l.017.017V6.166h2.037L46.761 8.2l.013-.013ZM44.8 10.308l2.023-.147v2.02h-2.004V10.29l-.017.017-.002.002ZM29.556 4.081c1.661.006 3.072 1.433 3.048 3.082-.023 1.65-1.388 3.009-3.04 3.027-1.662.017-3.078-1.383-3.08-3.05-.004-1.656 1.412-3.065 3.072-3.059Zm.985 3.038c-.01-.573-.465-.998-1.046-.974a.975.975 0 0 0-.946 1.01c.01.545.443.979.983.987a1.002 1.002 0 0 0 1.009-1.023ZM21.466 30.632h1.884c.16 2.634-2.224 5.021-4.993 5.042-2.771.021-5.213-2.399-5.055-5.077.565 0 1.136-.029 1.701.022.123.011.286.29.321.468.257 1.328 1.266 2.333 2.544 2.5 1.38.18 2.623-.459 3.196-1.684.18-.385.26-.816.402-1.271ZM35.72 30.626h1.927c.433 1.955 1.413 2.925 3 2.997 1.592.072 2.478-.745 3.241-2.999h1.882c.25 2.51-2.13 4.95-4.899 5.049-2.772.099-5.213-2.265-5.152-5.046l.002-.001Z"/><path d="M30.541 7.119a1.002 1.002 0 0 1-1.009 1.023.998.998 0 0 1-.983-.987.975.975 0 0 1 .947-1.01c.58-.024 1.037.4 1.045.974ZM24.581 45.02h1.927c.432 1.955 1.412 2.925 2.999 2.997 1.593.072 2.479-.745 3.242-2.999h1.882c.25 2.51-2.13 4.95-4.899 5.049-2.773.099-5.213-2.265-5.152-5.046l.001-.001Z"/></g><defs><clipPath id="a"><path fill="#fff" d="M0 0h59.099v63.163H0z"/></clipPath></defs></svg>