<svg width="53" height="54" fill="none" xmlns="http://www.w3.org/2000/svg"><g clip-path="url(#a)"><path d="M0 22.603c1.465 3.585 2.927 7.171 4.396 10.755.686 1.674 1.385 3.34 2.076 5.012.07.169.129.344.174.464-.82.234-1.628.368-2.355.69C1.944 40.56.551 42.38.097 44.913c-.018.097-.064.19-.097.285v1.555c.085.365.148.738.259 1.096.874 2.833 2.764 4.549 5.677 5.13.097.019.19.063.284.096h40.524c.112-.035.222-.083.337-.102 3.245-.556 5.73-3.34 5.875-6.586.15-3.376-1.993-6.347-5.225-7.203-.61-.162-1.25-.217-1.903-.328 0-.065-.013-.15.001-.233.223-1.289.2-2.575.001-3.867-.038-.253.028-.55.128-.793 1.268-3.096 2.58-6.174 3.823-9.28.712-1.778 1.59-3.447 2.818-4.917.379-.453.477-.933.346-1.493-.526-2.25-1.04-4.504-1.568-6.754-.203-.87-.793-1.121-1.545-.656-1.995 1.235-3.982 2.487-5.976 3.725-.464.288-.663.695-.748 1.228-.16 1.02-.25 2.078-.6 3.036-.887 2.427-1.902 4.806-2.867 7.204-.01.024-.057.032-.022.014l-3.128-1.13c.005-.1.004-.236.022-.37.357-2.555.478-5.121.425-7.7a1.664 1.664 0 0 1 .292-.931c1.584-2.232 2.271-4.686 1.764-7.391-.644-3.44-2.66-6.046-5.225-8.29-.315-.276-.681-.348-1.053-.122-.385.234-.51.587-.4 1.025.316 1.243.112 2.438-.574 3.478-.844 1.276-1.708 2.571-2.757 3.675-1.788 1.879-2.24 4.821-.224 7.347.23.29.265.556.211.901-.448 2.837-.711 5.69-.584 8.564.035.775-.097 1.288-.85 1.63-.482.218-.885.609-1.35.941-.038-.134-.058-.2-.074-.266-1.213-5.19-2.421-10.38-3.641-15.567-.224-.954-.345-1.975-.778-2.832-1.335-2.649-2.792-5.236-4.214-7.841-.502-.92-1.366-1.318-2.289-1.105-.955.222-1.564.972-1.606 2.027-.112 2.918-.217 5.834-.311 8.751-.011.323.033.656.106.972 1.219 5.223 2.447 10.444 3.672 15.667.2.85.392 1.7.59 2.565l-2.03.299c-.069-.157-.14-.31-.205-.467-1.492-3.6-2.982-7.201-4.475-10.801-.543-1.308-1.436-1.68-2.734-1.143-2.184.903-4.357 1.83-6.554 2.698-.852.336-1.462.818-1.65 1.743v.208L0 22.603Zm7.214 28.704c-2.611-.003-4.706-1.635-5.303-4.095-.908-3.75 2.496-7.229 6.264-6.398.084.018.17.032.253.053.842.198 1.267-.137 1.314-1.018.118-2.199.959-4.083 2.534-5.619 2.88-2.808 7.296-3.172 10.614-.899.156.107.311.223.484.297.513.216.953-.038 1.227-.688 1.734-4.105 5.424-6.5 9.857-6.397 4.977.114 9.31 4.227 9.714 9.194a11.152 11.152 0 0 1-.347 3.793c-.238.903.24 1.424 1.147 1.26 3.139-.569 6 1.591 6.308 4.76.297 3.053-2.153 5.742-5.31 5.753-6.477.022-12.953.007-19.43.007-6.443 0-12.885.005-19.327-.002l.001-.001ZM9.17 19.47l.68 1.624-2.87 1.196c-.128.053-.26.099-.382.16-.492.246-.679.695-.485 1.156.191.454.658.659 1.159.463.898-.351 1.787-.73 2.68-1.096.175-.072.35-.14.575-.23l.679 1.617c-.517.216-1.008.417-1.494.628-.582.252-.812.695-.624 1.177.2.512.696.695 1.288.46.495-.195.983-.405 1.507-.621l.677 1.63c-1.064.441-2.094.873-3.13 1.296-.425.173-.702.452-.68.93.026.616.625.983 1.243.744.9-.35 1.787-.729 2.68-1.096.173-.07.346-.138.567-.225.236.567.46 1.105.709 1.697-2.91 1.432-4.819 3.692-5.727 6.965L1.818 22.513l7.354-3.045-.003.002Zm13.334 8.045-2.679-11.421c-.166-.71-1.749.24-1.749.24s.972 4.19 1.133 4.876c.69 2.956 1.385 5.911 2.077 8.866.034.148.06.298.102.514-.613-.143-1.18-.25-1.728-.418-.123-.038-.224-.276-.263-.438-1.052-4.465-2.095-8.932-3.139-13.4-.203-.867-.408-1.736-.622-2.636l1.895.36c.187.783.379 1.604.581 2.422.16.65.558.946 1.091.831.52-.112.766-.587.622-1.217-.165-.723-.325-1.447-.51-2.166-.067-.264.005-.392.236-.536.42-.26.807-.575 1.252-.9.28 1.177.562 2.357.839 3.537.993 4.248 1.98 8.499 2.984 12.745.083.355.03.611-.19.9-.36.474-.662.99-1.043 1.573-.308-1.3-.6-2.515-.886-3.732h-.003ZM37.205 8.712c.499 2.285-.09 4.337-1.447 6.193a.685.685 0 0 1-.508.234 156.49 156.49 0 0 1-4.547-.275.978.978 0 0 1-.602-.315c-1.203-1.38-1.173-3.452.039-4.833.523-.596 1.053-1.19 1.546-1.81 1.122-1.409 2.108-2.895 2.481-4.818 1.572 1.664 2.576 3.503 3.038 5.622v.002Zm13.952 9.754c.03.133-.083.314-.166.451a240.63 240.63 0 0 1-2.22 3.66c-.115.184-.313.37-.512.44-1.68.597-3.599-.187-4.378-1.789a1.099 1.099 0 0 1-.06-.674c.328-1.405.68-2.807 1.037-4.205.042-.165.128-.369.258-.452 1.1-.709 2.217-1.394 3.448-2.161-.19.473-.33.833-.475 1.19-.241.59-.49 1.178-.729 1.768-.263.652-.108 1.143.417 1.347.504.195.95-.039 1.209-.654.334-.793.656-1.592.986-2.387.064-.154.144-.302.262-.548.328 1.405.64 2.705.923 4.013Zm-8.319 4.539c1.314 1.407 2.901 2.092 4.907 2.009L44.94 31.8c-.918-1.902-2.15-3.446-3.804-4.682l1.703-4.114ZM18.622 7c.494.911.974 1.78 1.435 2.659.054.103.027.27-.009.396-.3 1.037-.956 1.784-2 2.045-1.061.264-2.015-.071-2.768-.88-.118-.126-.22-.322-.223-.49-.021-.927-.01-1.857-.01-2.9 1.394.202 2.538 0 3.576-.83Zm16.46 14.356c-.115 1.098-.237 2.238-.347 3.28l-4.532.637v-4.21l4.88.294v-.001Zm-4.358-4.693 4.424.263v2.637l-4.756-.25.333-2.648-.001-.002ZM15.58 6.104c-.133-.024-.332-.248-.33-.378.012-1.174.055-2.347.113-3.52.007-.137.16-.266.248-.399.114.09.272.155.337.273.554.994 1.091 1.998 1.633 3 .057.104.107.212.176.352-.64.62-1.368.813-2.177.673v-.001Z" fill="#fff"/></g><defs><clipPath id="a"><path fill="#fff" transform="matrix(-1 0 0 1 53 0)" d="M0 0h53v53.075H0z"/></clipPath></defs></svg>